# This file uses centimeters as units for non-parametric coordinates.

mtllib cc.mtl
g default
v 7.449943 0.422246 -12.171588
v 10.063376 0.422246 -12.171588
v 7.449943 3.521820 -12.171588
v 10.063376 3.521820 -12.171588
v 7.449943 3.521820 -14.221345
v 10.063376 3.521820 -14.221345
v 7.449943 0.421306 -14.257160
v 10.063376 0.422246 -14.221345
v 3.362121 0.282725 -13.052442
v 5.947477 0.282725 -13.052442
v 3.362121 1.282725 -13.052442
v 5.947477 1.282725 -13.052442
v 3.362121 1.282725 -13.987985
v 5.947477 1.282725 -13.987985
v 3.362121 0.282725 -13.987985
v 5.947477 0.282725 -13.987985
v -6.082302 0.174923 -5.976391
v -6.082302 0.174923 -7.794446
v -6.082302 4.313394 -5.976391
v -6.082302 4.313394 -7.794446
v -7.035611 4.313394 -5.976391
v -7.035611 4.313394 -7.794446
v -7.035611 0.174923 -5.976391
v -7.035611 0.174923 -7.794446
vt 0.500000 0.990000
vt 0.225385 0.990000
vt 0.225385 0.664302
vt 0.500000 0.664302
vt 0.225385 0.448917
vt 0.500000 0.448917
vt 0.715385 0.664302
vt 0.990000 0.664302
vt 0.990000 0.990000
vt 0.715385 0.990000
vt 0.010000 0.990000
vt 0.010000 0.664302
vt 0.108305 0.031084
vt 0.379970 0.031084
vt 0.379970 0.136162
vt 0.108305 0.136162
vt 0.379970 0.234467
vt 0.108305 0.234467
vt 0.379970 0.339545
vt 0.108305 0.339545
vt 0.478275 0.031084
vt 0.478275 0.136162
vt 0.010000 0.136162
vt 0.010000 0.031084
vt 0.108305 0.437851
vt 0.379970 0.437851
vt 0.613757 0.118214
vt 0.804795 0.118214
vt 0.804795 0.553077
vt 0.613757 0.553077
vt 0.804796 0.653249
vt 0.613758 0.653250
vt 0.904967 0.118214
vt 0.904967 0.553077
vt 0.513585 0.118214
vt 0.513585 0.553077
vn 0.000000 0.000000 1.000000
vn 0.000000 0.000000 1.000000
vn 0.000000 0.000000 1.000000
vn 0.000000 0.000000 1.000000
vn 0.000000 1.000000 0.000000
vn 0.000000 1.000000 0.000000
vn 0.000000 1.000000 0.000000
vn 0.000000 1.000000 0.000000
vn 0.000000 0.000000 -1.000000
vn 0.000000 0.000000 -1.000000
vn 0.000000 0.000000 -1.000000
vn 0.000000 0.000000 -1.000000
vn 1.000000 0.000000 0.000000
vn 1.000000 0.000000 0.000000
vn 1.000000 0.000000 0.000000
vn 1.000000 0.000000 0.000000
vn -1.000000 0.000000 0.000000
vn -1.000000 0.000000 0.000000
vn -1.000000 0.000000 0.000000
vn -1.000000 0.000000 0.000000
vn 0.000000 0.000000 1.000000
vn 0.000000 0.000000 1.000000
vn 0.000000 0.000000 1.000000
vn 0.000000 0.000000 1.000000
vn 0.000000 1.000000 0.000000
vn 0.000000 1.000000 0.000000
vn 0.000000 1.000000 0.000000
vn 0.000000 1.000000 0.000000
vn 0.000000 0.000000 -1.000000
vn 0.000000 0.000000 -1.000000
vn 0.000000 0.000000 -1.000000
vn 0.000000 0.000000 -1.000000
vn 1.000000 0.000000 0.000000
vn 1.000000 0.000000 0.000000
vn 1.000000 0.000000 0.000000
vn 1.000000 0.000000 0.000000
vn -1.000000 0.000000 0.000000
vn -1.000000 0.000000 0.000000
vn -1.000000 0.000000 0.000000
vn -1.000000 0.000000 0.000000
vn 0.000000 -1.000000 0.000000
vn 0.000000 -1.000000 0.000000
vn 0.000000 -1.000000 0.000000
vn 0.000000 -1.000000 0.000000
vn 1.000000 0.000000 0.000000
vn 1.000000 0.000000 0.000000
vn 1.000000 0.000000 0.000000
vn 1.000000 0.000000 0.000000
vn 0.000000 1.000000 0.000000
vn 0.000000 1.000000 0.000000
vn 0.000000 1.000000 0.000000
vn 0.000000 1.000000 0.000000
vn 0.000000 0.000000 -1.000000
vn 0.000000 0.000000 -1.000000
vn 0.000000 0.000000 -1.000000
vn 0.000000 0.000000 -1.000000
vn 0.000000 0.000000 1.000000
vn 0.000000 0.000000 1.000000
vn 0.000000 0.000000 1.000000
vn 0.000000 0.000000 1.000000
s off
g Ñrates:polySurface3
usemtl initialShadingGroup
f 1/1/1 2/2/2 4/3/3 3/4/4
f 3/4/5 4/3/6 6/5/7 5/6/8
f 5/7/9 6/8/10 8/9/11 7/10/12
f 2/2/13 8/11/14 6/12/15 4/3/16
f 7/10/17 1/1/18 3/4/19 5/7/20
f 9/13/21 10/14/22 12/15/23 11/16/24
f 11/16/25 12/15/26 14/17/27 13/18/28
f 13/18/29 14/17/30 16/19/31 15/20/32
f 12/15/33 10/14/34 16/21/35 14/22/36
f 13/23/37 15/24/38 9/13/39 11/16/40
f 9/25/41 15/20/42 16/19/43 10/26/44
f 17/27/45 18/28/46 20/29/47 19/30/48
f 19/30/49 20/29/50 22/31/51 21/32/52
f 18/28/53 24/33/54 22/34/55 20/29/56
f 23/35/57 17/27/58 19/30/59 21/36/60
