# This file uses centimeters as units for non-parametric coordinates.

mtllib Dveri.mtl
g default
v 0.090439 0.311435 4.071092
v 1.740346 0.311435 4.071092
v 0.090439 4.057274 4.071092
v 1.740346 4.057274 4.071092
v 0.090439 4.057274 4.050066
v 1.740346 4.057274 4.050066
v 0.090439 0.311435 4.050066
v 1.740346 0.311435 4.050066
v -1.589045 0.311435 4.071092
v 0.060863 0.311435 4.071092
v -1.589045 4.057274 4.071092
v 0.060863 4.057274 4.071092
v -1.589045 4.057274 4.050066
v 0.060863 4.057274 4.050066
v -1.589045 0.311435 4.050066
v 0.060863 0.311435 4.050066
v -2.226165 4.369313 4.111007
v 2.298316 4.369313 4.111007
v -2.226165 4.369313 3.999794
v 2.298316 4.369313 3.999794
v 1.693848 4.071172 4.111007
v 1.693848 4.071172 3.999794
v -1.576009 4.071172 4.111007
v -1.576009 4.071172 3.999794
v 1.693848 0.258074 4.111007
v 1.693848 0.258074 3.999794
v 2.298316 0.258074 3.999794
v 2.298316 0.258074 4.111007
v -2.226165 0.258074 3.999794
v -1.576009 0.258074 3.999794
v -1.576009 0.258074 4.111007
v -2.226165 0.258074 4.111007
v 7.025830 0.311409 -1.057425
v 7.025830 0.311409 -2.741706
v 7.025830 4.057249 -1.057426
v 7.025830 4.057249 -2.741707
v 6.797093 4.057249 -1.057426
v 6.797093 4.057249 -2.741707
v 6.797093 0.311409 -1.057425
v 6.797093 0.311409 -2.741706
v 7.012620 4.369313 -0.475279
v 7.012620 4.369313 -3.295710
v 6.766143 4.369313 -0.475279
v 6.766143 4.369313 -3.295711
v 7.012620 4.071172 -2.731624
v 6.766143 4.071172 -2.731625
v 6.766143 4.071172 -1.039365
v 7.012620 4.071172 -1.039365
v 7.012620 0.237518 -2.731624
v 6.766143 0.237518 -2.731624
v 6.766143 0.237518 -3.295710
v 7.012620 0.237518 -3.295710
v 6.766143 0.237518 -0.475278
v 6.766143 0.237518 -1.039364
v 7.012620 0.237518 -1.039364
v 7.012620 0.237518 -0.475278
v 0.972700 0.311409 -14.276973
v -0.709965 0.311409 -14.276973
v 0.972700 4.057249 -14.276973
v -0.709965 4.057249 -14.276973
v 0.972700 4.057249 -14.225761
v -0.709965 4.057249 -14.225761
v 0.972700 0.311409 -14.225761
v -0.709965 0.311409 -14.225761
v -1.293254 4.369313 -14.157601
v 1.527177 4.369313 -14.157601
v -1.293254 4.369313 -14.359460
v 1.527177 4.369313 -14.359460
v 0.963091 4.071172 -14.157601
v 0.963091 4.071172 -14.359460
v -0.729168 4.071172 -14.359460
v -0.729168 4.071172 -14.157601
v 0.963091 0.237518 -14.157601
v 0.963091 0.237518 -14.359460
v 1.527177 0.237518 -14.359460
v 1.527177 0.237518 -14.157601
v -1.293254 0.237518 -14.359460
v -0.729168 0.237518 -14.359460
v -0.729168 0.237518 -14.157601
v -1.293254 0.237518 -14.157601
vt 0.382040 0.534603
vt 0.223637 0.534603
vt 0.223637 0.354969
vt 0.382040 0.354969
vt 0.223637 0.344000
vt 0.382040 0.344000
vt 0.829755 0.186207
vt 0.988000 0.186207
vt 0.988000 0.366020
vt 0.829755 0.366020
vt 0.988000 0.377000
vt 0.829755 0.377000
vt 0.201677 0.534603
vt 0.201677 0.354969
vt 0.404000 0.534603
vt 0.404000 0.354969
vt 0.010000 0.799207
vt 0.168246 0.799207
vt 0.168245 0.979020
vt 0.010000 0.979019
vt 0.168245 0.990000
vt 0.010000 0.990000
vt 0.348427 0.979020
vt 0.190184 0.979020
vt 0.190184 0.799207
vt 0.348428 0.799207
vt 0.190184 0.788227
vt 0.348428 0.788227
vt 0.202040 0.604000
vt 0.224000 0.604000
vt 0.224000 0.783633
vt 0.202040 0.783633
vt 0.030721 0.259858
vt 0.071999 0.259858
vt 0.071998 0.416666
vt 0.030720 0.416666
vt 0.072000 0.599525
vt 0.030723 0.599525
vt 0.575915 0.737822
vt 0.547292 0.769000
vt 0.547292 0.552026
vt 0.575915 0.581014
vt 0.942000 0.552025
vt 0.942000 0.581014
vt 0.942000 0.737822
vt 0.942000 0.769000
vt 0.385294 0.773026
vt 0.413918 0.804204
vt 0.413918 0.961012
vt 0.385294 0.989999
vt 0.780000 0.961013
vt 0.780000 0.990000
vt 0.780000 0.773025
vt 0.780000 0.804203
vt 0.030723 0.077000
vt 0.072000 0.077000
vt 0.539768 0.729573
vt 0.378065 0.729596
vt 0.377960 0.549962
vt 0.539662 0.549939
vt 0.377953 0.538993
vt 0.539656 0.538970
vt 0.822000 0.296231
vt 0.822000 0.377000
vt 0.462374 0.377000
vt 0.462374 0.296231
vt 0.356121 0.810368
vt 0.356105 0.729599
vt 0.378081 0.810368
vt 0.356000 0.549965
vt 0.378066 0.990000
vt 0.356105 0.990000
vt 0.953377 0.707206
vt 0.953377 0.626052
vt 0.982000 0.599000
vt 0.982000 0.734255
vt 0.585321 0.734255
vt 0.585323 0.707203
vt 0.585321 0.626052
vt 0.585321 0.599000
vt 0.412723 0.350998
vt 0.412722 0.269847
vt 0.453999 0.269847
vt 0.454000 0.350999
vt 0.820000 0.821610
vt 0.820000 0.956998
vt 0.791403 0.929922
vt 0.791403 0.848686
vt 0.423716 0.848684
vt 0.423716 0.821607
vt 0.423716 0.957000
vt 0.423716 0.929922
vt 0.453993 0.534845
vt 0.412716 0.534844
vt 0.412716 0.086001
vt 0.453993 0.086000
vt 0.990000 0.979019
vt 0.828616 0.979019
vt 0.828616 0.799207
vt 0.990000 0.799207
vt 0.193504 0.523673
vt 0.193507 0.604368
vt 0.171547 0.604368
vt 0.171543 0.523675
vt 0.010000 0.604368
vt 0.171548 0.784000
vt 0.010002 0.784000
vt 0.990000 0.989999
vt 0.828616 0.990000
vt 0.193509 0.784000
vt 0.171516 0.344040
vt 0.193477 0.344040
vt 0.575943 0.439793
vt 0.575943 0.520948
vt 0.547319 0.547998
vt 0.547319 0.412743
vt 0.943998 0.412741
vt 0.944000 0.439791
vt 0.943998 0.520949
vt 0.943998 0.548000
vt 0.080718 0.415998
vt 0.080718 0.334844
vt 0.121995 0.334844
vt 0.121995 0.415998
vt 0.982000 0.380745
vt 0.982000 0.516000
vt 0.953374 0.488947
vt 0.953374 0.407796
vt 0.585321 0.407798
vt 0.585321 0.380747
vt 0.585321 0.515998
vt 0.585321 0.488947
vt 0.121998 0.599842
vt 0.080721 0.599843
vt 0.080722 0.151000
vt 0.122000 0.151001
vn 0.000000 0.000000 1.000000
vn 0.000000 0.000000 1.000000
vn 0.000000 0.000000 1.000000
vn 0.000000 0.000000 1.000000
vn 0.000000 1.000000 0.000000
vn 0.000000 1.000000 0.000000
vn 0.000000 1.000000 0.000000
vn 0.000000 1.000000 0.000000
vn 0.000000 0.000000 -1.000000
vn 0.000000 0.000000 -1.000000
vn 0.000000 0.000000 -1.000000
vn 0.000000 0.000000 -1.000000
vn 0.000000 -1.000000 0.000000
vn 0.000000 -1.000000 0.000000
vn 0.000000 -1.000000 0.000000
vn 0.000000 -1.000000 0.000000
vn 1.000000 0.000000 0.000000
vn 1.000000 0.000000 0.000000
vn 1.000000 0.000000 0.000000
vn 1.000000 0.000000 0.000000
vn -1.000000 0.000000 0.000000
vn -1.000000 0.000000 0.000000
vn -1.000000 0.000000 0.000000
vn -1.000000 0.000000 0.000000
vn 0.000000 0.000000 1.000000
vn 0.000000 0.000000 1.000000
vn 0.000000 0.000000 1.000000
vn 0.000000 0.000000 1.000000
vn 0.000000 1.000000 0.000000
vn 0.000000 1.000000 0.000000
vn 0.000000 1.000000 0.000000
vn 0.000000 1.000000 0.000000
vn 0.000000 0.000000 -1.000000
vn 0.000000 0.000000 -1.000000
vn 0.000000 0.000000 -1.000000
vn 0.000000 0.000000 -1.000000
vn 0.000000 -1.000000 0.000000
vn 0.000000 -1.000000 0.000000
vn 0.000000 -1.000000 0.000000
vn 0.000000 -1.000000 0.000000
vn 1.000000 0.000000 0.000000
vn 1.000000 0.000000 0.000000
vn 1.000000 0.000000 0.000000
vn 1.000000 0.000000 0.000000
vn -1.000000 0.000000 0.000000
vn -1.000000 0.000000 0.000000
vn -1.000000 0.000000 0.000000
vn -1.000000 0.000000 0.000000
vn 0.000000 -1.000000 0.000000
vn 0.000000 -1.000000 0.000000
vn -0.707107 -0.707107 0.000000
vn -0.707107 -0.707107 0.000000
vn -0.707107 -0.707107 0.000000
vn -0.707107 -0.707107 0.000000
vn -1.000000 0.000000 0.000000
vn -1.000000 0.000000 0.000000
vn 0.000000 0.000000 -1.000000
vn 0.000000 0.000000 -1.000000
vn 0.000000 0.000000 -1.000000
vn 0.000000 0.000000 -1.000000
vn 0.000000 0.000000 -1.000000
vn 0.000000 0.000000 -1.000000
vn 0.000000 0.000000 -1.000000
vn 0.000000 0.000000 -1.000000
vn 0.000000 0.000000 -1.000000
vn 0.000000 0.000000 -1.000000
vn 0.000000 0.000000 -1.000000
vn 0.000000 0.000000 -1.000000
vn 0.000000 0.000000 1.000000
vn 0.000000 0.000000 1.000000
vn 0.000000 0.000000 1.000000
vn 0.000000 0.000000 1.000000
vn 0.000000 0.000000 1.000000
vn 0.000000 0.000000 1.000000
vn 0.000000 0.000000 1.000000
vn 0.000000 0.000000 1.000000
vn 0.000000 0.000000 1.000000
vn 0.000000 0.000000 1.000000
vn 0.000000 0.000000 1.000000
vn 0.000000 0.000000 1.000000
vn 1.000000 0.000000 0.000000
vn 1.000000 0.000000 0.000000
vn 1.000000 0.000000 0.000000
vn 1.000000 0.000000 0.000000
vn 1.000000 0.000000 0.000000
vn 1.000000 0.000000 0.000000
vn 1.000000 0.000000 0.000000
vn 1.000000 0.000000 0.000000
vn 0.000000 1.000000 0.000000
vn 0.000000 1.000000 0.000000
vn 0.000000 1.000000 0.000000
vn 0.000000 1.000000 0.000000
vn -1.000000 0.000000 0.000000
vn -1.000000 0.000000 0.000000
vn -1.000000 0.000000 0.000000
vn -1.000000 0.000000 0.000000
vn 0.000000 -1.000000 0.000000
vn 0.000000 -1.000000 0.000000
vn 0.000000 -1.000000 0.000000
vn 0.000000 -1.000000 0.000000
vn 0.000000 0.000000 -1.000000
vn 0.000000 0.000000 -1.000000
vn 0.000000 0.000000 -1.000000
vn 0.000000 0.000000 -1.000000
vn 0.000000 0.000000 1.000000
vn 0.000000 0.000000 1.000000
vn 0.000000 0.000000 1.000000
vn 0.000000 0.000000 1.000000
vn -1.000000 0.000000 0.000000
vn -1.000000 0.000000 0.000000
vn -1.000000 0.000000 0.000000
vn -1.000000 0.000000 0.000000
vn -1.000000 0.000000 0.000000
vn -1.000000 0.000000 0.000000
vn -1.000000 0.000000 0.000000
vn -1.000000 0.000000 0.000000
vn -1.000000 0.000000 0.000000
vn -1.000000 0.000000 0.000000
vn -1.000000 0.000000 0.000000
vn -1.000000 0.000000 0.000000
vn 0.000000 -1.000000 0.000000
vn 0.000000 -1.000000 0.000000
vn 0.000000 -1.000000 0.000000
vn 0.000000 -1.000000 0.000000
vn 1.000000 0.000000 0.000000
vn 1.000000 0.000000 0.000000
vn 1.000000 0.000000 0.000000
vn 1.000000 0.000000 0.000000
vn 1.000000 0.000000 0.000000
vn 1.000000 0.000000 0.000000
vn 1.000000 0.000000 0.000000
vn 1.000000 0.000000 0.000000
vn 1.000000 0.000000 0.000000
vn 1.000000 0.000000 0.000000
vn 1.000000 0.000000 0.000000
vn 1.000000 0.000000 0.000000
vn 0.000000 0.000000 1.000000
vn 0.000000 0.000000 1.000000
vn 0.000000 0.000000 1.000000
vn 0.000000 0.000000 1.000000
vn 0.000000 0.000000 -1.000000
vn 0.000000 0.000000 -1.000000
vn 0.000000 0.000000 -1.000000
vn 0.000000 0.000000 -1.000000
vn 0.000000 0.000000 -1.000000
vn 0.000000 0.000000 -1.000000
vn 0.000000 0.000000 -1.000000
vn 0.000000 0.000000 -1.000000
vn 0.000000 1.000000 0.000000
vn 0.000000 1.000000 0.000000
vn 0.000000 1.000000 0.000000
vn 0.000000 1.000000 0.000000
vn 0.000000 0.000000 1.000000
vn 0.000000 0.000000 1.000000
vn 0.000000 0.000000 1.000000
vn 0.000000 0.000000 1.000000
vn 0.000000 -1.000000 0.000000
vn 0.000000 -1.000000 0.000000
vn 0.000000 -1.000000 0.000000
vn 0.000000 -1.000000 0.000000
vn -1.000000 0.000000 0.000000
vn -1.000000 0.000000 0.000000
vn -1.000000 0.000000 0.000000
vn -1.000000 0.000000 0.000000
vn 1.000000 0.000000 0.000000
vn 1.000000 0.000000 0.000000
vn 1.000000 0.000000 0.000000
vn 1.000000 0.000000 0.000000
vn 0.000000 0.000000 -1.000000
vn 0.000000 0.000000 -1.000000
vn 0.000000 0.000000 -1.000000
vn 0.000000 0.000000 -1.000000
vn 0.000000 0.000000 -1.000000
vn 0.000000 0.000000 -1.000000
vn 0.000000 0.000000 -1.000000
vn 0.000000 0.000000 -1.000000
vn 0.000000 0.000000 -1.000000
vn 0.000000 0.000000 -1.000000
vn 0.000000 0.000000 -1.000000
vn 0.000000 0.000000 -1.000000
vn 0.000000 -1.000000 0.000000
vn 0.000000 -1.000000 0.000000
vn 0.000000 -1.000000 0.000000
vn 0.000000 -1.000000 0.000000
vn 0.000000 0.000000 1.000000
vn 0.000000 0.000000 1.000000
vn 0.000000 0.000000 1.000000
vn 0.000000 0.000000 1.000000
vn 0.000000 0.000000 1.000000
vn 0.000000 0.000000 1.000000
vn 0.000000 0.000000 1.000000
vn 0.000000 0.000000 1.000000
vn 0.000000 0.000000 1.000000
vn 0.000000 0.000000 1.000000
vn 0.000000 0.000000 1.000000
vn 0.000000 0.000000 1.000000
vn -1.000000 0.000000 0.000000
vn -1.000000 0.000000 0.000000
vn -1.000000 0.000000 0.000000
vn -1.000000 0.000000 0.000000
vn 1.000000 0.000000 0.000000
vn 1.000000 0.000000 0.000000
vn 1.000000 0.000000 0.000000
vn 1.000000 0.000000 0.000000
s off
g Deri1:polySurface178
usemtl Deri1:initialShadingGroup
f 1/1/1 2/2/2 4/3/3 3/4/4
f 3/4/5 4/3/6 6/5/7 5/6/8
f 5/7/9 6/8/10 8/9/11 7/10/12
f 7/10/13 8/9/14 2/11/15 1/12/16
f 2/2/17 8/13/18 6/14/19 4/3/20
f 7/15/21 1/1/22 3/4/23 5/16/24
f 9/17/25 10/18/26 12/19/27 11/20/28
f 11/20/29 12/19/30 14/21/31 13/22/32
f 13/23/33 14/24/34 16/25/35 15/26/36
f 15/26/37 16/25/38 10/27/39 9/28/40
f 10/18/41 16/25/42 14/24/43 12/19/44
f 15/29/45 9/30/46 11/31/47 13/32/48
f 23/33/49 24/34/50 22/35/51 21/36/52
f 21/36/53 22/35/54 26/37/55 25/38/56
f 24/39/57 19/40/58 20/41/59 22/42/60
f 22/42/61 20/41/62 27/43/63 26/44/64
f 19/40/65 24/39/66 30/45/67 29/46/68
f 17/47/69 23/48/70 21/49/71 18/50/72
f 18/50/73 21/49/74 25/51/75 28/52/76
f 23/48/77 17/47/78 32/53/79 31/54/80
f 24/34/81 23/33/82 31/55/83 30/56/84
f 33/57/85 34/58/86 36/59/87 35/60/88
f 35/60/89 36/59/90 38/61/91 37/62/92
f 37/63/93 38/64/94 40/65/95 39/66/96
f 39/67/97 40/68/98 34/58/99 33/69/100
f 34/58/101 40/68/102 38/70/103 36/59/104
f 39/67/105 33/69/106 35/71/107 37/72/108
f 46/73/109 47/74/110 43/75/111 44/76/112
f 46/73/113 44/76/114 51/77/115 50/78/116
f 43/75/117 47/74/118 54/79/119 53/80/120
f 45/81/121 48/82/122 47/83/123 46/84/124
f 42/85/125 41/86/126 48/87/127 45/88/128
f 42/85/129 45/88/130 49/89/131 52/90/132
f 48/87/133 41/86/134 56/91/135 55/92/136
f 45/81/137 46/84/138 50/93/139 49/94/140
f 47/83/141 48/82/142 55/95/143 54/96/144
f 57/97/145 58/98/146 60/99/147 59/100/148
f 59/101/149 60/102/150 62/103/151 61/104/152
f 61/105/153 62/103/154 64/106/155 63/107/156
f 63/108/157 64/109/158 58/98/159 57/97/160
f 58/110/161 64/106/162 62/103/163 60/102/164
f 63/111/165 57/112/166 59/101/167 61/104/168
f 70/113/169 71/114/170 67/115/171 68/116/172
f 70/113/173 68/116/174 75/117/175 74/118/176
f 67/115/177 71/114/178 78/119/179 77/120/180
f 69/121/181 72/122/182 71/123/183 70/124/184
f 66/125/185 65/126/186 72/127/187 69/128/188
f 66/125/189 69/128/190 73/129/191 76/130/192
f 72/127/193 65/126/194 80/131/195 79/132/196
f 69/121/197 70/124/198 74/133/199 73/134/200
f 71/123/201 72/122/202 79/135/203 78/136/204
