# This file uses centimeters as units for non-parametric coordinates.

mtllib Stend.mtl
g default
v -7.368433 13.536390 4.053772
v 8.278862 13.536390 4.053772
v -7.368433 17.585894 4.053772
v 8.278862 17.585894 4.053772
v -7.368433 17.585894 3.826996
v 8.278862 17.585894 3.826996
v -7.368433 13.536390 3.826996
v 8.278862 13.536390 3.826996
v 4.789315 11.098427 3.951191
v 5.039663 11.098427 3.951191
v 4.789315 17.850492 3.951191
v 5.039663 17.850492 3.951191
v 4.789315 17.850492 3.581706
v 5.039663 17.850492 3.581706
v 4.789315 11.098427 3.581706
v 5.039663 11.098427 3.581706
v -4.046929 11.098427 3.951191
v -3.796582 11.098427 3.951191
v -4.046929 17.850492 3.951191
v -3.796582 17.850492 3.951191
v -4.046929 17.850492 3.581706
v -3.796582 17.850492 3.581706
v -4.046929 11.098427 3.581706
v -3.796582 11.098427 3.581706
vt 0.010000 0.788522
vt 0.788510 0.788522
vt 0.788510 0.990000
vt 0.010000 0.990000
vt 0.989986 0.564839
vt 0.211478 0.564829
vt 0.211478 0.553546
vt 0.989986 0.553556
vt 0.010000 0.575942
vt 0.788510 0.575942
vt 0.788510 0.777419
vt 0.010000 0.777419
vt 0.211481 0.529579
vt 0.990000 0.529603
vt 0.990000 0.540886
vt 0.211481 0.540862
vt 0.010000 0.564839
vt 0.010000 0.553556
vt 0.010004 0.540886
vt 0.010000 0.529603
vt 0.195814 0.481423
vt 0.195814 0.463040
vt 0.566901 0.463040
vt 0.566901 0.481423
vt 0.393004 0.433099
vt 0.411387 0.433099
vt 0.411387 0.451482
vt 0.393004 0.451482
vt 0.566901 0.499806
vt 0.566901 0.518189
vt 0.195814 0.518190
vt 0.195814 0.499806
vt 0.039941 0.517352
vt 0.021558 0.517352
vt 0.021558 0.498969
vt 0.039941 0.498969
vt 0.782476 0.433099
vt 0.782475 0.451482
vt 0.010000 0.415553
vt 0.010000 0.397170
vt 0.381087 0.397170
vt 0.381087 0.415553
vt 0.782476 0.421541
vt 0.764092 0.421542
vt 0.764092 0.403158
vt 0.782476 0.403158
vt 0.381087 0.433936
vt 0.381087 0.452319
vt 0.010000 0.452319
vt 0.010000 0.433936
vt 0.069882 0.517352
vt 0.051498 0.517352
vt 0.051498 0.498969
vt 0.069882 0.498969
vt 0.393006 0.421541
vt 0.393006 0.403158
vn 0.000000 0.000000 1.000000
vn 0.000000 0.000000 1.000000
vn 0.000000 0.000000 1.000000
vn 0.000000 0.000000 1.000000
vn 0.000000 1.000000 0.000000
vn 0.000000 1.000000 0.000000
vn 0.000000 1.000000 0.000000
vn 0.000000 1.000000 0.000000
vn 0.000000 0.000000 -1.000000
vn 0.000000 0.000000 -1.000000
vn 0.000000 0.000000 -1.000000
vn 0.000000 0.000000 -1.000000
vn 0.000000 -1.000000 0.000000
vn 0.000000 -1.000000 0.000000
vn 0.000000 -1.000000 0.000000
vn 0.000000 -1.000000 0.000000
vn 1.000000 0.000000 0.000000
vn 1.000000 0.000000 0.000000
vn 1.000000 0.000000 0.000000
vn 1.000000 0.000000 0.000000
vn -1.000000 0.000000 0.000000
vn -1.000000 0.000000 0.000000
vn -1.000000 0.000000 0.000000
vn -1.000000 0.000000 0.000000
vn 0.000000 0.000000 1.000000
vn 0.000000 0.000000 1.000000
vn 0.000000 0.000000 1.000000
vn 0.000000 0.000000 1.000000
vn 0.000000 1.000000 0.000000
vn 0.000000 1.000000 0.000000
vn 0.000000 1.000000 0.000000
vn 0.000000 1.000000 0.000000
vn 0.000000 0.000000 -1.000000
vn 0.000000 0.000000 -1.000000
vn 0.000000 0.000000 -1.000000
vn 0.000000 0.000000 -1.000000
vn 0.000000 -1.000000 0.000000
vn 0.000000 -1.000000 0.000000
vn 0.000000 -1.000000 0.000000
vn 0.000000 -1.000000 0.000000
vn 1.000000 0.000000 0.000000
vn 1.000000 0.000000 0.000000
vn 1.000000 0.000000 0.000000
vn 1.000000 0.000000 0.000000
vn -1.000000 0.000000 0.000000
vn -1.000000 0.000000 0.000000
vn -1.000000 0.000000 0.000000
vn -1.000000 0.000000 0.000000
vn 0.000000 0.000000 1.000000
vn 0.000000 0.000000 1.000000
vn 0.000000 0.000000 1.000000
vn 0.000000 0.000000 1.000000
vn 0.000000 1.000000 0.000000
vn 0.000000 1.000000 0.000000
vn 0.000000 1.000000 0.000000
vn 0.000000 1.000000 0.000000
vn 0.000000 0.000000 -1.000000
vn 0.000000 0.000000 -1.000000
vn 0.000000 0.000000 -1.000000
vn 0.000000 0.000000 -1.000000
vn 0.000000 -1.000000 0.000000
vn 0.000000 -1.000000 0.000000
vn 0.000000 -1.000000 0.000000
vn 0.000000 -1.000000 0.000000
vn 1.000000 0.000000 0.000000
vn 1.000000 0.000000 0.000000
vn 1.000000 0.000000 0.000000
vn 1.000000 0.000000 0.000000
vn -1.000000 0.000000 0.000000
vn -1.000000 0.000000 0.000000
vn -1.000000 0.000000 0.000000
vn -1.000000 0.000000 0.000000
s off
g ctend:pCube18
usemtl ctend:initialShadingGroup
f 1/1/1 2/2/2 4/3/3 3/4/4
f 3/5/5 4/6/6 6/7/7 5/8/8
f 5/9/9 6/10/10 8/11/11 7/12/12
f 7/13/13 8/14/14 2/15/15 1/16/16
f 2/17/17 8/18/18 6/7/19 4/6/20
f 7/13/21 1/16/22 3/19/23 5/20/24
f 9/21/25 10/22/26 12/23/27 11/24/28
f 11/25/29 12/26/30 14/27/31 13/28/32
f 13/29/33 14/30/34 16/31/35 15/32/36
f 15/33/37 16/34/38 10/35/39 9/36/40
f 10/37/41 16/38/42 14/27/43 12/26/44
f 15/32/45 9/21/46 11/24/47 13/29/48
f 17/39/49 18/40/50 20/41/51 19/42/52
f 19/43/53 20/44/54 22/45/55 21/46/56
f 21/47/57 22/48/58 24/49/59 23/50/60
f 23/51/61 24/52/62 18/53/63 17/54/64
f 18/55/65 24/56/66 22/45/67 20/44/68
f 23/50/69 17/39/70 19/42/71 21/47/72
